<svg width="222" height="20" viewBox="0 0 222 20" fill="none" xmlns="http://www.w3.org/2000/svg">
<g clip-path="url(#clip0)">
<path d="M12.6779 0.692307H5.63631V14.65H10.3281V5.34235H12.6779C13.4534 5.34235 14.0831 5.96641 14.0831 6.73508C14.0831 7.50374 13.4534 8.12781 12.6779 8.12781H11.2726V12.7931H12.6779C16.0412 12.7931 18.7826 10.0761 18.7826 6.74269C18.7826 3.40927 16.0412 0.692307 12.6779 0.692307Z" fill="white"/>
<path d="M4.69181 1.6208L0 6.27845V19.3077H5.63632L9.3913 15.5861H4.69181V1.6208Z" fill="#2F9BD8"/>
<path d="M26.4845 5.73048C25.97 5.49455 25.3404 5.37278 24.6109 5.37278H23.4744H22.7526H21.6007V14.6576H23.4744V11.2633H24.6109C25.3404 11.2633 25.97 11.1492 26.4845 10.9133C26.999 10.6773 27.3983 10.3349 27.6748 9.89344C27.9512 9.44442 28.0894 8.9269 28.0894 8.31806C28.0894 7.70922 27.9512 7.18409 27.6748 6.74268C27.3983 6.30127 27.0067 5.9664 26.4845 5.73048ZM25.8241 9.34548C25.5247 9.58141 25.1254 9.69557 24.6109 9.69557H23.4744V6.94816H24.6109C25.1177 6.94816 25.5247 7.06232 25.8241 7.29064C26.1236 7.51895 26.2695 7.86143 26.2695 8.31045C26.2695 8.76708 26.1236 9.10956 25.8241 9.34548Z" fill="white"/>
<path d="M30.4776 5.37278H28.7805V14.6576H30.4776V5.37278Z" fill="white"/>
<path d="M35.7991 8.62249C35.3921 8.47028 34.9237 8.39417 34.4015 8.39417C33.8333 8.39417 33.3111 8.47028 32.8504 8.6301C32.3896 8.78992 31.998 8.94974 31.6832 9.11717L32.3282 10.2588C32.4203 10.1979 32.5586 10.1218 32.7429 10.0304C32.9271 9.93911 33.1498 9.86301 33.4109 9.79451C33.672 9.72602 33.9408 9.69558 34.2172 9.69558C34.4015 9.69558 34.5781 9.71841 34.7317 9.75646C34.8853 9.79451 35.0158 9.8554 35.1233 9.9315C35.2308 10.0076 35.3153 10.1065 35.369 10.2283C35.4305 10.3501 35.4535 10.4947 35.4535 10.6697V11.3318C35.2539 11.2177 35.0081 11.1187 34.7086 11.035C34.4092 10.9513 34.0559 10.9057 33.6566 10.9057C32.8888 10.9057 32.2975 11.0807 31.8751 11.4308C31.4528 11.7809 31.2455 12.2527 31.2455 12.8463C31.2455 13.2649 31.3453 13.615 31.5449 13.9042C31.7446 14.1934 32.0134 14.4141 32.3436 14.5587C32.6737 14.7109 33.027 14.787 33.4109 14.787C33.7872 14.787 34.1481 14.7185 34.486 14.5892C34.8315 14.4598 35.108 14.2543 35.3306 13.9955C35.3767 13.9423 35.4074 13.889 35.4458 13.8357V14.6576H37.0891V10.3349C37.0891 9.91628 36.9739 9.5662 36.7436 9.277C36.5209 8.9878 36.206 8.76709 35.7991 8.62249ZM35.2539 12.9681C35.1233 13.1812 34.9467 13.341 34.724 13.4552C34.509 13.5693 34.2633 13.6226 33.9945 13.6226C33.7949 13.6226 33.6182 13.5922 33.4647 13.5237C33.3111 13.4552 33.1882 13.3562 33.0961 13.2269C33.0039 13.0975 32.9655 12.9377 32.9655 12.7626C32.9655 12.5876 33.0039 12.4354 33.0884 12.3212C33.1652 12.1994 33.2957 12.1081 33.4647 12.0396C33.6336 11.9711 33.8563 11.9407 34.1327 11.9407C34.4629 11.9407 34.7778 11.9863 35.0849 12.0701C35.2155 12.1081 35.3383 12.1538 35.4612 12.2071V12.2223C35.4535 12.5039 35.3921 12.755 35.2539 12.9681Z" fill="white"/>
<path d="M42.2109 8.55397L40.6752 12.3669L39.1317 8.55397H37.2273L39.7844 14.0336L38.2179 17.5725H39.9687L43.9848 8.55397H42.2109Z" fill="white"/>
<path d="M48.8148 8.78231C48.3387 8.53877 47.7628 8.417 47.087 8.417C46.4113 8.417 45.82 8.54638 45.3286 8.80514C44.8371 9.0639 44.4532 9.43681 44.1767 9.90867C43.908 10.3805 43.7698 10.9437 43.7698 11.5982C43.7698 12.2451 43.908 12.8007 44.1767 13.2725C44.4455 13.7444 44.8294 14.1173 45.3286 14.3837C45.82 14.65 46.4036 14.7794 47.064 14.7794C47.8012 14.7794 48.4385 14.6348 48.9607 14.3456C49.4905 14.0564 49.9129 13.6302 50.2431 13.067L48.761 12.5876C48.5844 12.892 48.3541 13.1127 48.0776 13.2649C47.8012 13.4171 47.471 13.4932 47.087 13.4932C46.7415 13.4932 46.442 13.4171 46.204 13.2649C45.9659 13.1127 45.7816 12.892 45.6588 12.6028C45.582 12.4201 45.5282 12.2071 45.4975 11.9711H50.2431C50.2508 11.9178 50.2584 11.8494 50.2661 11.7656C50.2738 11.6819 50.2738 11.5982 50.2738 11.5221C50.2738 10.8676 50.1509 10.312 49.8975 9.84778C49.6441 9.38354 49.2832 9.02584 48.8148 8.78231ZM46.204 9.84017C46.4343 9.68796 46.7185 9.61185 47.064 9.61185C47.3481 9.61185 47.5939 9.67274 47.8012 9.79451C48.0085 9.91628 48.1698 10.0913 48.285 10.3044C48.3848 10.4871 48.4385 10.6926 48.4539 10.9361H45.5359C45.5666 10.7763 45.6127 10.6241 45.6665 10.4947C45.7893 10.2055 45.9736 9.99238 46.204 9.84017Z" fill="white"/>
<path d="M54.9042 8.52355C54.7045 8.44744 54.4972 8.40178 54.2745 8.40178C53.952 8.40178 53.6371 8.51594 53.3377 8.73664C53.138 8.88885 52.9614 9.07151 52.8155 9.2846V8.54638H51.1415V14.65H52.8155V11.4003C52.8155 11.1111 52.8539 10.86 52.923 10.6469C52.9921 10.4338 53.1073 10.274 53.2609 10.1598C53.4145 10.0457 53.5988 9.98477 53.8214 9.98477C53.9981 9.98477 54.144 10.0152 54.2668 10.0685C54.382 10.1294 54.5049 10.2055 54.6277 10.312L55.4033 8.88124C55.2651 8.72142 55.0961 8.60726 54.9042 8.52355Z" fill="white"/>
<path d="M59.6113 11.4536C59.3272 11.3014 59.0277 11.1568 58.6976 11.0198C58.4211 10.9133 58.1831 10.8219 57.9757 10.7382C57.7684 10.6621 57.6071 10.5708 57.492 10.4642C57.3768 10.3653 57.3154 10.2435 57.3154 10.0989C57.3154 9.95433 57.3768 9.84778 57.4996 9.76407C57.6225 9.68796 57.7761 9.6423 57.9757 9.6423C58.2675 9.6423 58.567 9.7184 58.8742 9.87061C59.1736 10.0228 59.4424 10.2131 59.6651 10.4566L60.4407 9.42159C60.2333 9.22372 60.003 9.05629 59.7496 8.90407C59.4962 8.75186 59.2197 8.63771 58.9126 8.54638C58.6054 8.45505 58.2829 8.417 57.9373 8.417C57.538 8.417 57.1695 8.47788 56.8316 8.59965C56.4937 8.72142 56.2326 8.91169 56.033 9.16283C55.8333 9.41398 55.7412 9.72601 55.7412 10.0989C55.7412 10.4795 55.8256 10.7915 56.0023 11.035C56.1789 11.2786 56.3939 11.4764 56.6626 11.621C56.9314 11.7656 57.2078 11.8874 57.492 11.9863C57.7838 12.0853 58.0372 12.1766 58.2368 12.2679C58.4365 12.3593 58.59 12.4658 58.6899 12.5724C58.7897 12.6865 58.8434 12.8159 58.8434 12.9757C58.8434 13.1508 58.782 13.2954 58.6592 13.4019C58.5363 13.5085 58.352 13.5617 58.114 13.5617C57.9373 13.5617 57.7454 13.5237 57.5457 13.4552C57.3461 13.3867 57.1311 13.2725 56.9084 13.1203C56.6857 12.9681 56.4476 12.7778 56.2019 12.5495L55.3572 13.5998C55.5799 13.8205 55.8333 14.026 56.1251 14.2238C56.4169 14.4217 56.7394 14.5739 57.1003 14.6881C57.4612 14.8022 57.8606 14.8631 58.2982 14.8631C58.997 14.8631 59.5422 14.6957 59.9415 14.3532C60.3408 14.0107 60.5405 13.5389 60.5405 12.9301C60.5405 12.5571 60.456 12.2603 60.2871 12.0244C60.1181 11.7961 59.8878 11.6058 59.6113 11.4536Z" fill="white"/>
<path d="M60.9244 8.63009H62.13L63.4892 5.37278H61.6693L60.9244 8.63009Z" fill="white"/>
<path d="M66.7297 5.37278H64.856V14.65H70.4616V13.0214H66.7297V5.37278Z" fill="white"/>
<path d="M75.7217 8.82033C75.2072 8.55396 74.6236 8.42458 73.9786 8.42458C73.3335 8.42458 72.7576 8.55396 72.2431 8.82033C71.7287 9.0867 71.3217 9.45962 71.0222 9.93147C70.7227 10.4109 70.5768 10.9665 70.5768 11.6058C70.5768 12.2375 70.7227 12.7854 71.0222 13.2725C71.3217 13.752 71.7287 14.1249 72.2431 14.3912C72.7576 14.6576 73.3335 14.787 73.9786 14.787C74.6313 14.787 75.2149 14.6576 75.7217 14.3912C76.2362 14.1249 76.6431 13.752 76.9426 13.2725C77.2421 12.793 77.388 12.2375 77.388 11.6058C77.388 10.9665 77.2421 10.4109 76.9426 9.93147C76.6431 9.45201 76.2362 9.0867 75.7217 8.82033ZM75.4222 12.5267C75.2686 12.7854 75.069 12.9909 74.8233 13.1355C74.5698 13.2801 74.2934 13.3562 73.9786 13.3562C73.6637 13.3562 73.3873 13.2801 73.1339 13.1355C72.8805 12.9909 72.6885 12.7854 72.5349 12.5267C72.389 12.2679 72.3123 11.9559 72.3123 11.6058C72.3123 11.2557 72.389 10.9437 72.5349 10.6773C72.6808 10.4109 72.8805 10.2054 73.1339 10.0608C73.3873 9.91625 73.6637 9.84014 73.9786 9.84014C74.2934 9.84014 74.5698 9.91625 74.8233 10.0608C75.0767 10.2054 75.2763 10.4109 75.4222 10.6773C75.5758 10.9437 75.6526 11.2557 75.6526 11.6058C75.6526 11.9559 75.5758 12.2679 75.4222 12.5267Z" fill="white"/>
<path d="M82.2257 12.2679C82.2257 12.5343 82.172 12.755 82.0721 12.9453C81.9723 13.1279 81.8264 13.2725 81.6344 13.3791C81.4501 13.478 81.2274 13.5313 80.9817 13.5313C80.6285 13.5313 80.3674 13.4171 80.1985 13.1964C80.0295 12.9757 79.9527 12.6637 79.9527 12.2679V8.554H78.202V12.4506C78.202 13.1736 78.3863 13.7444 78.7472 14.163C79.1081 14.5815 79.6533 14.787 80.3751 14.787C80.8128 14.787 81.1814 14.6957 81.4962 14.5131C81.8034 14.3304 82.0491 14.0716 82.2411 13.7216V14.65H83.9381V8.54639H82.2411V12.2679H82.2257Z" fill="white"/>
<path d="M88.6683 8.417C88.2306 8.417 87.862 8.50833 87.5472 8.69098C87.24 8.87363 86.9943 9.13239 86.8023 9.48248V8.55399H85.1053V14.6576H86.8023V10.9437C86.8023 10.6773 86.8561 10.4566 86.9559 10.2664C87.0557 10.0837 87.2016 9.93911 87.3936 9.83256C87.5779 9.73362 87.7929 9.68035 88.0386 9.68035C88.4072 9.68035 88.6683 9.7869 88.8372 10.0076C88.9985 10.2207 89.083 10.5327 89.083 10.9437V14.6576H90.8338V10.761C90.8338 10.0304 90.6495 9.45203 90.2886 9.04106C89.9353 8.62248 89.3901 8.417 88.6683 8.417Z" fill="white"/>
<path d="M96.7619 9.52053C96.5622 9.21611 96.3165 8.97257 96.0247 8.78992C95.6331 8.53877 95.18 8.417 94.6578 8.417C94.1434 8.417 93.6519 8.53877 93.1989 8.7747C92.7458 9.01062 92.3772 9.36832 92.1008 9.83256C91.8243 10.2968 91.6861 10.8676 91.6861 11.5525C91.6861 12.2223 91.8243 12.7931 92.1008 13.2649C92.3772 13.7368 92.7458 14.0869 93.1989 14.3228C93.6519 14.5587 94.1434 14.6805 94.6578 14.6805C95.1723 14.6805 95.6331 14.5587 96.0247 14.3076C96.3165 14.1249 96.5622 13.8814 96.7619 13.5769V14.5207C96.7619 14.9468 96.6851 15.2969 96.5238 15.5709C96.3626 15.8449 96.1552 16.0504 95.9018 16.1874C95.6484 16.3244 95.372 16.3928 95.0802 16.3928C94.7654 16.3928 94.4966 16.3396 94.2585 16.2254C94.0205 16.1113 93.8362 15.959 93.7057 15.7688C93.5751 15.5709 93.4983 15.3426 93.4907 15.0762H91.8166C91.855 15.609 92.0009 16.0808 92.2544 16.4918C92.5078 16.9028 92.8763 17.2224 93.3601 17.4431C93.8439 17.6714 94.4352 17.778 95.1416 17.778C95.7329 17.778 96.2704 17.6638 96.7695 17.4355C97.261 17.2072 97.6603 16.8495 97.9675 16.37C98.2669 15.8906 98.4205 15.2741 98.4205 14.5207V8.55399H96.7772V9.52053H96.7619ZM96.5238 12.5039C96.3626 12.7626 96.1552 12.9529 95.9095 13.0823C95.6561 13.2116 95.4027 13.2725 95.1493 13.2725C94.8421 13.2725 94.5657 13.204 94.3046 13.0747C94.0435 12.9453 93.8439 12.7474 93.6903 12.4886C93.5367 12.2299 93.4599 11.9179 93.4599 11.5449C93.4599 11.172 93.5367 10.86 93.6903 10.6012C93.8439 10.3425 94.0435 10.1522 94.3046 10.0152C94.5657 9.88583 94.8421 9.81734 95.1493 9.81734C95.349 9.81734 95.5409 9.85539 95.7252 9.92389C95.9095 9.99238 96.0861 10.1065 96.2474 10.2511C96.4086 10.3957 96.5315 10.5784 96.6313 10.7915C96.7235 11.0046 96.7695 11.2557 96.7695 11.5373C96.7619 11.9331 96.6851 12.2451 96.5238 12.5039Z" fill="white"/>
<path d="M105.393 9.84775C105.14 9.38351 104.779 9.03343 104.31 8.78989C103.834 8.54635 103.258 8.42458 102.582 8.42458C101.907 8.42458 101.315 8.55396 100.824 8.81272C100.333 9.07148 99.9486 9.4444 99.6722 9.91625C99.4034 10.3881 99.2652 10.9513 99.2652 11.6058C99.2652 12.2527 99.4034 12.8083 99.6722 13.2801C99.9409 13.752 100.325 14.1249 100.824 14.3912C101.315 14.6576 101.899 14.787 102.559 14.787C103.297 14.787 103.934 14.6424 104.456 14.3532C104.986 14.064 105.408 13.6378 105.739 13.0746L104.256 12.5952C104.08 12.8996 103.85 13.1203 103.573 13.2725C103.297 13.4247 102.966 13.5008 102.582 13.5008C102.237 13.5008 101.937 13.4247 101.699 13.2725C101.461 13.1203 101.277 12.8996 101.154 12.6104C101.077 12.4277 101.024 12.2146 100.993 11.9787H105.739C105.746 11.9254 105.754 11.8569 105.762 11.7732C105.769 11.6895 105.769 11.6058 105.769 11.5297C105.769 10.8676 105.646 10.312 105.393 9.84775ZM101.699 9.84014C101.93 9.68793 102.214 9.61183 102.559 9.61183C102.844 9.61183 103.089 9.67271 103.297 9.79448C103.504 9.91625 103.665 10.0913 103.78 10.3044C103.88 10.487 103.934 10.6925 103.949 10.9361H101.039C101.07 10.7762 101.116 10.624 101.17 10.4947C101.292 10.2054 101.469 9.99235 101.699 9.84014Z" fill="white"/>
</g>
<path d="M117.512 13.372C117.571 13.372 117.624 13.3958 117.672 13.4435L118.09 13.9C117.767 14.274 117.375 14.5655 116.913 14.7745C116.454 14.9835 115.901 15.088 115.252 15.088C114.683 15.088 114.168 14.9908 113.706 14.7965C113.244 14.5985 112.85 14.3235 112.524 13.9715C112.197 13.6158 111.944 13.1905 111.765 12.6955C111.585 12.2005 111.495 11.656 111.495 11.062C111.495 10.468 111.59 9.9235 111.781 9.4285C111.975 8.9335 112.247 8.50817 112.595 8.1525C112.943 7.79683 113.36 7.52183 113.844 7.3275C114.331 7.1295 114.868 7.0305 115.455 7.0305C116.034 7.0305 116.533 7.12033 116.951 7.3C117.373 7.47967 117.747 7.7235 118.073 8.0315L117.727 8.521C117.701 8.55767 117.672 8.58883 117.639 8.6145C117.606 8.6365 117.558 8.6475 117.496 8.6475C117.448 8.6475 117.397 8.631 117.341 8.598C117.29 8.56133 117.228 8.51733 117.155 8.466C117.081 8.41467 116.995 8.35967 116.896 8.301C116.797 8.24233 116.68 8.18733 116.544 8.136C116.408 8.08467 116.251 8.0425 116.071 8.0095C115.891 7.97283 115.684 7.9545 115.45 7.9545C115.028 7.9545 114.641 8.02783 114.289 8.1745C113.941 8.3175 113.64 8.52283 113.387 8.7905C113.134 9.05817 112.936 9.3845 112.793 9.7695C112.654 10.1545 112.584 10.5853 112.584 11.062C112.584 11.5533 112.654 11.9915 112.793 12.3765C112.936 12.7615 113.129 13.0878 113.371 13.3555C113.616 13.6195 113.906 13.8212 114.24 13.9605C114.573 14.0998 114.933 14.1695 115.318 14.1695C115.552 14.1695 115.763 14.1567 115.95 14.131C116.137 14.1017 116.309 14.0577 116.467 13.999C116.628 13.9403 116.777 13.867 116.913 13.779C117.052 13.6873 117.191 13.5792 117.331 13.4545C117.393 13.3995 117.453 13.372 117.512 13.372ZM129.118 11.062C129.118 11.6523 129.024 12.195 128.837 12.69C128.65 13.1813 128.386 13.6048 128.045 13.9605C127.704 14.3162 127.294 14.593 126.813 14.791C126.337 14.9853 125.809 15.0825 125.229 15.0825C124.65 15.0825 124.122 14.9853 123.645 14.791C123.169 14.593 122.76 14.3162 122.419 13.9605C122.078 13.6048 121.814 13.1813 121.627 12.69C121.44 12.195 121.346 11.6523 121.346 11.062C121.346 10.4717 121.44 9.93083 121.627 9.4395C121.814 8.9445 122.078 8.51917 122.419 8.1635C122.76 7.80417 123.169 7.5255 123.645 7.3275C124.122 7.1295 124.65 7.0305 125.229 7.0305C125.809 7.0305 126.337 7.1295 126.813 7.3275C127.294 7.5255 127.704 7.80417 128.045 8.1635C128.386 8.51917 128.65 8.9445 128.837 9.4395C129.024 9.93083 129.118 10.4717 129.118 11.062ZM128.023 11.062C128.023 10.578 127.957 10.1435 127.825 9.7585C127.693 9.3735 127.506 9.049 127.264 8.785C127.022 8.51733 126.729 8.312 126.384 8.169C126.04 8.026 125.655 7.9545 125.229 7.9545C124.808 7.9545 124.424 8.026 124.08 8.169C123.735 8.312 123.44 8.51733 123.194 8.785C122.952 9.049 122.765 9.3735 122.633 9.7585C122.501 10.1435 122.435 10.578 122.435 11.062C122.435 11.546 122.501 11.9805 122.633 12.3655C122.765 12.7468 122.952 13.0713 123.194 13.339C123.44 13.603 123.735 13.8065 124.08 13.9495C124.424 14.0888 124.808 14.1585 125.229 14.1585C125.655 14.1585 126.04 14.0888 126.384 13.9495C126.729 13.8065 127.022 13.603 127.264 13.339C127.506 13.0713 127.693 12.7468 127.825 12.3655C127.957 11.9805 128.023 11.546 128.023 11.062ZM133.434 7.1185C133.529 7.1185 133.599 7.13133 133.643 7.157C133.69 7.179 133.743 7.22667 133.802 7.3L138.367 13.24C138.356 13.1447 138.349 13.053 138.345 12.965C138.341 12.8733 138.34 12.7853 138.34 12.701V7.1185H139.275V15H138.736C138.651 15 138.58 14.9853 138.521 14.956C138.466 14.9267 138.411 14.8772 138.356 14.8075L133.797 8.873C133.804 8.96467 133.809 9.0545 133.813 9.1425C133.817 9.2305 133.819 9.31117 133.819 9.3845V15H132.884V7.1185H133.434ZM144.058 7.1185C144.153 7.1185 144.223 7.13133 144.267 7.157C144.315 7.179 144.368 7.22667 144.427 7.3L148.992 13.24C148.981 13.1447 148.973 13.053 148.97 12.965C148.966 12.8733 148.964 12.7853 148.964 12.701V7.1185H149.899V15H149.36C149.276 15 149.204 14.9853 149.146 14.956C149.091 14.9267 149.036 14.8772 148.981 14.8075L144.421 8.873C144.428 8.96467 144.434 9.0545 144.438 9.1425C144.441 9.2305 144.443 9.31117 144.443 9.3845V15H143.508V7.1185H144.058ZM158.989 7.1185V7.9875H155.205V10.6055H158.269V11.4415H155.205V14.131H158.989V15H154.133V7.1185H158.989ZM168.389 13.372C168.448 13.372 168.501 13.3958 168.549 13.4435L168.967 13.9C168.644 14.274 168.252 14.5655 167.79 14.7745C167.331 14.9835 166.778 15.088 166.129 15.088C165.56 15.088 165.045 14.9908 164.583 14.7965C164.121 14.5985 163.727 14.3235 163.401 13.9715C163.074 13.6158 162.821 13.1905 162.642 12.6955C162.462 12.2005 162.372 11.656 162.372 11.062C162.372 10.468 162.467 9.9235 162.658 9.4285C162.852 8.9335 163.124 8.50817 163.472 8.1525C163.82 7.79683 164.237 7.52183 164.721 7.3275C165.208 7.1295 165.745 7.0305 166.332 7.0305C166.911 7.0305 167.41 7.12033 167.828 7.3C168.25 7.47967 168.624 7.7235 168.95 8.0315L168.604 8.521C168.578 8.55767 168.549 8.58883 168.516 8.6145C168.483 8.6365 168.435 8.6475 168.373 8.6475C168.325 8.6475 168.274 8.631 168.219 8.598C168.167 8.56133 168.105 8.51733 168.032 8.466C167.958 8.41467 167.872 8.35967 167.773 8.301C167.674 8.24233 167.557 8.18733 167.421 8.136C167.285 8.08467 167.128 8.0425 166.948 8.0095C166.768 7.97283 166.561 7.9545 166.327 7.9545C165.905 7.9545 165.518 8.02783 165.166 8.1745C164.818 8.3175 164.517 8.52283 164.264 8.7905C164.011 9.05817 163.813 9.3845 163.67 9.7695C163.531 10.1545 163.461 10.5853 163.461 11.062C163.461 11.5533 163.531 11.9915 163.67 12.3765C163.813 12.7615 164.006 13.0878 164.248 13.3555C164.493 13.6195 164.783 13.8212 165.117 13.9605C165.45 14.0998 165.81 14.1695 166.195 14.1695C166.429 14.1695 166.64 14.1567 166.827 14.131C167.014 14.1017 167.186 14.0577 167.344 13.999C167.505 13.9403 167.654 13.867 167.79 13.779C167.929 13.6873 168.068 13.5792 168.208 13.4545C168.27 13.3995 168.33 13.372 168.389 13.372ZM178.042 7.1185V8.015H175.496V15H174.429V8.015H171.871V7.1185H178.042Z" fill="#D4E2EC"/>
<path d="M185.91 15V7.1185H188.423C188.907 7.1185 189.323 7.16617 189.672 7.2615C190.024 7.35683 190.311 7.4925 190.535 7.6685C190.762 7.8445 190.929 8.06083 191.036 8.3175C191.146 8.5705 191.201 8.8565 191.201 9.1755C191.201 9.36983 191.169 9.55683 191.107 9.7365C191.048 9.91617 190.957 10.083 190.832 10.237C190.711 10.391 190.557 10.5285 190.37 10.6495C190.187 10.7705 189.97 10.8695 189.721 10.9465C190.297 11.0602 190.731 11.2673 191.025 11.568C191.318 11.8687 191.465 12.2647 191.465 12.756C191.465 13.0897 191.402 13.394 191.278 13.669C191.157 13.944 190.977 14.1805 190.739 14.3785C190.504 14.5765 190.214 14.7305 189.87 14.8405C189.529 14.9468 189.138 15 188.698 15H185.91ZM186.977 11.4085V14.153H188.682C188.986 14.153 189.246 14.1182 189.463 14.0485C189.683 13.9788 189.862 13.8817 190.002 13.757C190.145 13.6287 190.249 13.4783 190.315 13.306C190.381 13.13 190.414 12.9375 190.414 12.7285C190.414 12.3215 190.269 12.0007 189.98 11.766C189.694 11.5277 189.259 11.4085 188.676 11.4085H186.977ZM186.977 10.6495H188.385C188.685 10.6495 188.946 10.6165 189.166 10.5505C189.386 10.4845 189.567 10.3928 189.71 10.2755C189.857 10.1582 189.965 10.017 190.035 9.852C190.104 9.68333 190.139 9.5 190.139 9.302C190.139 8.84 190 8.50083 189.721 8.2845C189.442 8.06817 189.01 7.96 188.423 7.96H186.977V10.6495ZM200.198 7.1185V7.9875H196.414V10.6055H199.478V11.4415H196.414V14.131H200.198V15H195.342V7.1185H200.198ZM209.411 7.1185V8.015H206.865V15H205.798V8.015H203.24V7.1185H209.411ZM218.596 15H217.771C217.675 15 217.598 14.9762 217.54 14.9285C217.481 14.8808 217.437 14.8203 217.408 14.747L216.671 12.844H213.134L212.397 14.747C212.371 14.813 212.327 14.8717 212.265 14.923C212.203 14.9743 212.126 15 212.034 15H211.209L214.361 7.1185H215.444L218.596 15ZM213.431 12.074H216.374L215.136 8.8675C215.055 8.6695 214.977 8.422 214.9 8.125C214.859 8.27533 214.819 8.41467 214.779 8.543C214.742 8.66767 214.705 8.77767 214.669 8.873L213.431 12.074Z" fill="#F6BB43"/>
<defs>
<clipPath id="clip0">
<rect width="105.769" height="18.6154" fill="white" transform="translate(0 0.692307)"/>
</clipPath>
</defs>
</svg>
