<svg width="32" height="32" viewBox="0 0 32 32" fill="none" xmlns="http://www.w3.org/2000/svg">
<path d="M27.5922 14.1773C27.5922 14.1773 30.1177 14.3053 30.1177 12.8205C30.1177 10.8775 26.7551 9.1277 26.7551 9.1277C26.7551 9.1277 27.2825 8.01025 27.6102 7.38497C27.9398 6.76033 28.8646 4.32257 28.9478 3.76769C29.0527 3.06753 28.8927 2.84737 28.8927 2.84737C28.6649 4.34753 26.2226 8.66498 26.03 8.81218C23.6473 7.69474 20.375 7.38497 20.375 7.38497C20.375 7.38497 17.1724 0.640015 14.1599 0.640015C11.1724 0.640015 11.1871 6.41473 11.1871 6.41473C11.1871 6.41473 10.3423 4.77762 9.28503 4.77762C7.73495 4.77762 7.22743 7.12257 7.22743 9.66274C4.16759 9.66274 1.59543 10.345 1.36504 10.4103C1.13464 10.4775 0.412715 11.0023 0.739755 10.9376C1.40984 10.7226 4.55223 10.2349 7.30231 10.4749C7.45463 12.8903 8.86519 16.0352 8.86519 16.0352C8.86519 16.0352 5.84247 20.4128 5.84247 23.5399C5.84247 24.3623 6.20023 25.8675 8.37047 25.8675C10.1874 25.8675 12.2271 24.7751 12.6124 24.5523C12.2777 25.0323 12.03 25.9424 12.03 26.3623C12.03 26.7053 12.2322 27.6775 13.6351 27.6775C15.4348 27.6775 17.445 26.2976 17.445 26.2976C17.445 26.2976 19.3426 29.4528 20.9676 30.8999C21.4047 31.2903 21.8226 31.36 21.8226 31.36C21.8226 31.36 20.2098 29.8074 18.085 25.8074C20.0601 24.5875 22.1151 21.7101 22.1151 21.7101C22.1151 21.7101 22.3577 21.7178 24.2322 21.7178C27.1698 21.7178 31.3426 21.1002 31.3426 18.7648C31.3426 16.3552 27.5922 14.1773 27.5922 14.1773V14.1773ZM27.9199 12.7277C27.9199 13.5802 27.1097 13.5674 27.1097 13.5674L26.4927 13.6103C26.4927 13.6103 25.3222 12.9952 24.615 12.7079C24.615 12.7079 25.7126 11.0125 25.9698 10.5402C26.165 10.6528 27.9199 11.7523 27.9199 12.7277ZM15.63 4.03777C17.0098 4.03777 18.9798 7.2973 18.9798 7.2973C18.9798 7.2973 15.9052 7.0221 13.3746 8.5101C13.4425 6.16258 14.2322 4.03777 15.63 4.03777ZM10.158 6.6797C10.5977 6.6797 11.0271 7.21282 11.205 7.6653C11.205 7.96482 11.3599 9.7101 11.3599 9.7101L8.82551 9.61474C8.82551 7.32738 9.72023 6.68033 10.1574 6.68033L10.158 6.6797ZM9.89751 22.5581C8.51255 22.5581 8.22519 21.785 8.22519 21.0899C8.22519 19.5175 9.47959 17.3178 9.47959 17.3178C9.47959 17.3178 10.8876 20.2778 13.3452 21.5277C12.1247 22.2426 11.1199 22.5581 9.89751 22.5581V22.5581ZM14.3948 25.6576C13.422 25.6576 13.3049 25.0272 13.3049 24.8826C13.3049 24.4301 13.6569 23.8951 13.6569 23.8951C13.6569 23.8951 15.2902 22.7923 15.3951 22.6752L16.6002 24.9248C16.6002 24.9248 15.365 25.6576 14.3948 25.6576V25.6576ZM17.4252 24.4301C16.8326 23.3952 16.3974 22.3149 16.3974 22.3149C16.3974 22.3149 18.8249 22.4723 20.1298 21.1245C19.317 21.4899 18.0198 21.9527 16.5126 21.8125C19.6652 19.0349 21.5046 17.0227 23.0598 14.9402C22.9273 14.7802 22.215 14.2823 22.0402 14.1997C21.1026 15.3299 17.4502 19.2352 14.0697 21.1674C9.78743 18.8327 8.89015 11.9623 8.79735 10.5351L11.1372 10.7603C11.1372 10.7603 10.2572 12.3175 10.2572 13.465C10.2572 14.6106 10.3948 14.6727 10.3948 14.6727C10.3948 14.6727 10.3647 12.6727 11.5999 11.1303C12.5401 16.1351 13.5199 18.7002 14.2847 20.2272C14.6726 20.0672 15.3977 19.7453 15.3977 19.7453C15.3977 19.7453 13.2377 13.5181 13.3574 9.30242C14.3372 8.78018 15.7874 8.24002 17.4252 8.24002C21.7324 8.24002 25.1948 10.0947 25.1948 10.0947L23.8399 11.9872C23.8399 11.9872 22.6322 9.7997 20.9279 9.40994C21.8271 10.0819 22.8351 10.9677 23.3574 12.2426C19.7874 10.8474 15.4796 10.1101 14.0972 9.94754C13.9775 10.4576 13.9922 11.1872 13.9922 11.1872C13.9922 11.1872 19.7702 12.2528 23.975 14.6599C23.9449 19.92 18.215 23.9603 17.4252 24.4301V24.4301ZM22.8972 20.4973C22.8972 20.4973 24.6898 18.1421 24.6623 15.0253C24.6623 15.0253 27.5602 16.8199 27.5602 18.5703C27.5602 20.5274 22.8972 20.4973 22.8972 20.4973Z" fill="white"/>
</svg>
